<?xml version="1.0" encoding="UTF-8" standalone="no"?>
<svg
   xmlns:dc="http://purl.org/dc/elements/1.1/"
   xmlns:cc="http://creativecommons.org/ns#"
   xmlns:rdf="http://www.w3.org/1999/02/22-rdf-syntax-ns#"
   xmlns:svg="http://www.w3.org/2000/svg"
   xmlns="http://www.w3.org/2000/svg"
   version="1.1"
   id="svg8520"
   viewBox="0 0 1024 1024"
   height="1024"
   width="1024">
  <metadata
     id="metadata17">
    <rdf:RDF>
      <cc:Work
         rdf:about="">
        <dc:format>image/svg+xml</dc:format>
        <dc:type
           rdf:resource="http://purl.org/dc/dcmitype/StillImage" />
        <dc:title></dc:title>
      </cc:Work>
    </rdf:RDF>
  </metadata>
  <defs
     id="defs8522" />
  <g
     transform="translate(0,-28.362114)"
     id="layer1">
    <path
       id="rect9187"
       d="m 236.29331,1170.3928 c -81.441,71.5318 -46.7743,138.7457 -62.022,138.7457 -113.726904,0 -192.602604,49.0045 -256.198304,147.7318 -29.956596,46.5054 -211.410296,106.1143 -180.826596,260.4043 30.4735,153.7342 233.048796,0.9166 274.766096,34.2221 -89.0626,138.1231 -78.1176,209.44 -28.3607,246.0829 -76.121,14.2696 -127.758196,42.5625 -127.758196,75.2852 0,1.8885 0.1894,3.7604 0.5281,5.6175 -89.4285,-6.2189 -115.7875,39.28 -115.7875,115.9105 l 787.6563,0 c 6.2293,-89.3906 -39.1368,-115.9105 -115.7856,-115.9105 0.3387,-1.8571 0.5281,-3.729 0.5281,-5.6175 0,-31.1006 -46.6445,-58.2014 -116.621,-73.0632 219.9904,-172.9722 216.3196,-533.7634 -15.8137,-654.2094 -1.8026,-41.9143 -40.8347,-108.0548 -44.305,-175.1994 z M 30.716606,1449.0979 a 32.355417,32.355417 0 0 1 32.3554,32.3553 32.355417,32.355417 0 0 1 -32.3554,32.3554 32.355417,32.355417 0 0 1 -32.3553004,-32.3554 32.355417,32.355417 0 0 1 32.3553004,-32.3553 z"
       style="opacity:1;fill:#ff7575;fill-opacity:1;fill-rule:nonzero;stroke:none;stroke-width:4;stroke-linecap:butt;stroke-linejoin:miter;stroke-miterlimit:4;stroke-dasharray:none;stroke-dashoffset:0;stroke-opacity:1" />
    <path
       id="path9193"
       d="m 1520.5466,1204.9998 c -44.7539,3e-4 -81.034,36.2806 -81.0344,81.0346 0.027,27.3547 13.8536,52.8494 36.7657,67.7934 l -39.7606,280.4573 -111.5999,-262.0335 c 13.2795,-14.8297 20.636,-34.0285 20.6662,-53.9348 -3e-4,-44.7538 -36.2804,-81.0339 -81.0342,-81.0344 -44.7539,4e-4 -81.034,36.2806 -81.0344,81.0344 0.024,35.0667 22.6006,66.1392 55.9439,76.997 l 34.0626,280.2198 -190.5892,-243.3385 c 4.3819,-10.1333 6.647,-21.0554 6.6563,-32.0955 -5e-4,-44.7548 -36.2817,-81.0352 -81.0365,-81.0346 -44.75402,6e-4 -81.03412,36.2806 -81.03462,81.0346 0.053,42.9325 33.5807,78.3731 76.44442,80.8052 l 232.8593,578.357 c -13.5958,11.2642 -21.1265,23.6813 -21.1265,36.7446 0,2.0662 0.2095,4.1154 0.5799,6.1475 -97.8655,-6.8056 -126.7113,42.9857 -126.7113,126.8459 l 861.9668,0 c 6.817,-97.8254 -42.8304,-126.8459 -126.7115,-126.8459 0.3707,-2.0321 0.5801,-4.0813 0.5801,-6.1475 0,-13.0633 -7.5307,-25.4804 -21.1265,-36.7446 l 232.8341,-578.2876 c 42.9003,-2.4209 76.4528,-37.9062 76.4694,-80.8746 -3e-4,-44.754 -36.2804,-81.0342 -81.0344,-81.0346 -44.7546,-6e-4 -81.036,36.2798 -81.0364,81.0346 0.032,11.023 2.314,21.9234 6.7045,32.0345 l -190.6377,243.3995 34.0691,-280.2723 c 33.3225,-10.8539 55.8917,-41.8988 55.9376,-76.9445 -4e-4,-44.7538 -36.2805,-81.034 -81.0344,-81.0344 -44.754,4e-4 -81.0341,36.2806 -81.0344,81.0344 0.036,19.9023 7.3942,39.0952 20.6727,53.92 l -111.6064,262.0462 -39.7521,-280.4131 c 22.9215,-14.9541 36.746,-40.4675 36.7572,-67.8355 -3e-4,-44.754 -36.2804,-81.0343 -81.0344,-81.0346 z"
       style="opacity:1;fill:#ff7575;fill-opacity:1;fill-rule:nonzero;stroke:none;stroke-width:4;stroke-linecap:butt;stroke-linejoin:miter;stroke-miterlimit:4;stroke-dasharray:none;stroke-dashoffset:0;stroke-opacity:1" />
    <path
       id="path4137"
       d="m 512,28.362114 a 70.558012,70.558012 0 0 0 -70.5581,70.55824 70.558012,70.558012 0 0 0 24.6497,53.545856 c -101.5404,88.04503 -336.3875,307.75931 -336.3877,456.60003 0,101.02664 54.4704,191.87256 134.0461,254.77577 -34.0404,15.6136 -54.2633,35.2109 -54.2633,56.5451 0,2.051 0.2077,4.0853 0.5757,6.1024 l -50.2548,0 c -41.8187,0 -75.4845,33.6657 -75.4845,75.48429 l 0,50.3883 855.3538,0 0,-50.3883 c 0,-41.81859 -33.6657,-75.48429 -75.4845,-75.48429 l -50.2569,0 c 0.3679,-2.0171 0.5757,-4.0512 0.5757,-6.1024 0,-21.3348 -20.2213,-40.9333 -54.2634,-56.5471 C 839.823,800.93677 894.2961,710.09255 894.2961,609.06624 894.2959,460.20374 659.3808,240.44802 557.8647,152.42873 A 70.558012,70.558012 0 0 0 582.5583,98.920354 70.558012,70.558012 0 0 0 512,28.362114 Z m -6.3506,326.996186 12.6992,0 c 10.5535,0 19.05,8.4964 19.05,19.05001 l 0,57.14979 57.1498,0 c 10.5535,0 19.0499,8.49651 19.0499,19.05 l 0,12.69918 c 0,10.55349 -8.4964,19.05 -19.0499,19.05 l -57.1498,0 0,57.14979 c 0,10.55349 -8.4965,19.04787 -19.05,19.04787 l -12.6992,0 c -10.5535,0 -19.0499,-8.49438 -19.0499,-19.04787 l 0,-57.14979 -57.1479,0 c -10.5535,0 -19.0499,-8.49651 -19.0499,-19.05 l 0,-12.69918 c 0,-10.55349 8.4964,-19.05 19.0499,-19.05 l 57.1479,0 0,-57.14979 c 0,-10.55361 8.4964,-19.05001 19.0499,-19.05001 z"
       style="opacity:1;fill:#ff7575;fill-opacity:1;fill-rule:nonzero;stroke:none;stroke-width:4;stroke-linecap:butt;stroke-linejoin:miter;stroke-miterlimit:4;stroke-dasharray:none;stroke-dashoffset:0;stroke-opacity:1" />
    <path
       id="path4192"
       d="m 1330.0251,-644.00227 0,281.82687 136.5463,0 86.0241,537.75989 c -35.2058,16.79909 -55.9994,37.62807 -55.9994,60.24177 0,2.24075 0.2269,4.46289 0.6287,6.66643 -106.0893,-7.37748 -137.3591,46.5979 -137.3591,137.50503 l 934.3998,0 c 7.3898,-106.04607 -46.4295,-137.50503 -137.3593,-137.50503 0.4019,-2.20354 0.6287,-4.42568 0.6287,-6.66643 0,-22.6137 -20.7936,-43.44268 -55.9994,-60.24177 l 86.0241,-537.75989 136.5465,0 0,-281.82687 -198.8162,0 0,112.7302 -198.8162,0 0,-112.7302 -198.8163,0 0,112.7302 -198.8161,0 0,-112.7302 z"
       style="opacity:1;fill:#ff7575;fill-opacity:1;fill-rule:nonzero;stroke:none;stroke-width:4;stroke-linecap:butt;stroke-linejoin:miter;stroke-miterlimit:4;stroke-dasharray:none;stroke-dashoffset:0;stroke-opacity:1" />
  </g>
</svg>
